<svg width="21" height="23" viewBox="0 0 21 23" fill="none" xmlns="http://www.w3.org/2000/svg">
<path d="M7.33333 1H2.05556C1.47259 1 1 1.52233 1 2.16667V10.3333C1 10.9777 1.47259 11.5 2.05556 11.5H7.33333C7.9163 11.5 8.38889 10.9777 8.38889 10.3333V2.16667C8.38889 1.52233 7.9163 1 7.33333 1Z" stroke="white" stroke-width="2" stroke-linecap="round" stroke-linejoin="round"/>
<path d="M18.9444 1H13.6667C13.0837 1 12.6111 1.52233 12.6111 2.16667V5.66667C12.6111 6.311 13.0837 6.83333 13.6667 6.83333H18.9444C19.5274 6.83333 20 6.311 20 5.66667V2.16667C20 1.52233 19.5274 1 18.9444 1Z" stroke="white" stroke-width="2" stroke-linecap="round" stroke-linejoin="round"/>
<path d="M18.9444 11.5H13.6667C13.0837 11.5 12.6111 12.0223 12.6111 12.6667V20.8333C12.6111 21.4777 13.0837 22 13.6667 22H18.9444C19.5274 22 20 21.4777 20 20.8333V12.6667C20 12.0223 19.5274 11.5 18.9444 11.5Z" stroke="white" stroke-width="2" stroke-linecap="round" stroke-linejoin="round"/>
<path d="M7.33333 16.1667H2.05556C1.47259 16.1667 1 16.689 1 17.3333V20.8333C1 21.4777 1.47259 22 2.05556 22H7.33333C7.9163 22 8.38889 21.4777 8.38889 20.8333V17.3333C8.38889 16.689 7.9163 16.1667 7.33333 16.1667Z" stroke="white" stroke-width="2" stroke-linecap="round" stroke-linejoin="round"/>
</svg>
