<svg width="28" height="31" viewBox="0 0 28 31" fill="none" xmlns="http://www.w3.org/2000/svg">
<path d="M9.44333 10.4176L18.5567 20.5824M12.0471 27.8431L25.0662 13.3218C25.6746 12.6568 26.1587 11.864 26.4906 10.989C26.8225 10.114 26.9956 9.17437 26.9999 8.22433C27.0042 7.27429 26.8396 6.33272 26.5157 5.45407C26.1917 4.57542 25.7148 3.77711 25.1125 3.10532C24.5102 2.43353 23.7945 1.90158 23.0067 1.54023C22.2189 1.17888 21.3748 0.995293 20.523 1.00009C19.6713 1.00489 18.8288 1.19798 18.0443 1.56819C17.2599 1.93839 16.549 2.47838 15.9529 3.15692L2.93379 17.6782C2.32545 18.3432 1.84132 19.136 1.50941 20.011C1.1775 20.886 1.00438 21.8256 1.00008 22.7757C0.99578 23.7257 1.16037 24.6673 1.48434 25.5459C1.80832 26.4246 2.28524 27.2229 2.88753 27.8947C3.48983 28.5665 4.20554 29.0984 4.9933 29.4598C5.78106 29.8211 6.62522 30.0047 7.47699 29.9999C8.32875 29.9951 9.17121 29.802 9.95565 29.4318C10.7401 29.0616 11.451 28.5216 12.0471 27.8431Z" stroke="white" stroke-width="2" stroke-linecap="round" stroke-linejoin="round"/>
</svg>
