<svg width="28" height="31" viewBox="0 0 28 31" fill="none" xmlns="http://www.w3.org/2000/svg">
<path d="M11.4974 28.5501C11.751 28.9909 12.1156 29.357 12.5548 29.6115C12.994 29.866 13.4921 30 13.9992 30C14.5063 30 15.0045 29.866 15.4436 29.6115C15.8828 29.357 16.2475 28.9909 16.501 28.5501M1.3774 20.3228C1.1887 20.5304 1.06417 20.7886 1.01896 21.0659C0.973749 21.3433 1.00981 21.6279 1.12275 21.885C1.23568 22.1422 1.42064 22.3609 1.65511 22.5144C1.88957 22.668 2.16345 22.7499 2.44342 22.7501H25.555C25.8349 22.7502 26.1089 22.6686 26.3435 22.5153C26.5781 22.3621 26.7633 22.1436 26.8765 21.8866C26.9898 21.6296 27.0262 21.3452 26.9813 21.0678C26.9365 20.7904 26.8123 20.5321 26.6239 20.3242C24.7028 18.3363 22.6661 16.2236 22.6661 9.70004C22.6661 7.39264 21.7529 5.17976 20.1276 3.54818C18.5023 1.91661 16.2978 1 13.9992 1C11.7006 1 9.49618 1.91661 7.87083 3.54818C6.24548 5.17976 5.33237 7.39264 5.33237 9.70004C5.33237 16.2236 3.29421 18.3363 1.3774 20.3228Z" stroke="white" stroke-width="2" stroke-linecap="round" stroke-linejoin="round"/>
</svg>
