<svg width="28" height="31" viewBox="0 0 28 31" fill="none" xmlns="http://www.w3.org/2000/svg">
<path d="M19.2 30V4.22222C19.2 3.36764 18.9261 2.54805 18.4385 1.94377C17.9509 1.33948 17.2896 1 16.6 1H11.4C10.7104 1 10.0491 1.33948 9.56152 1.94377C9.07393 2.54805 8.8 3.36764 8.8 4.22222V30M3.6 7.44444H24.4C25.8359 7.44444 27 8.88708 27 10.6667V26.7778C27 28.5574 25.8359 30 24.4 30H3.6C2.16406 30 1 28.5574 1 26.7778V10.6667C1 8.88708 2.16406 7.44444 3.6 7.44444Z" stroke="white" stroke-width="2" stroke-linecap="round" stroke-linejoin="round"/>
</svg>
