<svg width="26" height="29" viewBox="0 0 26 29" fill="none" xmlns="http://www.w3.org/2000/svg">
<g clip-path="url(#clip0_4_165)">
<path d="M20.3667 29C20.3667 26.0089 19.4079 23.1404 17.7014 21.0254C15.9948 18.9104 13.6802 17.7222 11.2667 17.7222M11.2667 17.7222C8.85322 17.7222 6.5386 18.9104 4.83202 21.0254C3.12543 23.1404 2.16669 26.0089 2.16669 29M11.2667 17.7222C14.4078 17.7222 16.9542 14.5665 16.9542 10.6736C16.9542 6.78077 14.4078 3.625 11.2667 3.625C8.12557 3.625 5.57919 6.78077 5.57919 10.6736C5.57919 14.5665 8.12557 17.7222 11.2667 17.7222ZM24.9167 27.5903C24.9167 22.8395 22.6417 18.4271 20.3667 16.3125C21.1145 15.6172 21.7125 14.7041 22.1077 13.6541C22.5029 12.6042 22.6832 11.4496 22.6326 10.2927C22.582 9.13579 22.302 8.01218 21.8175 7.0213C21.333 6.03043 20.6589 5.20285 19.8548 4.61181" stroke="white" stroke-width="2" stroke-linecap="round" stroke-linejoin="round"/>
</g>
<defs>
<clipPath id="clip0_4_165">
<rect width="26" height="29" fill="white"/>
</clipPath>
</defs>
</svg>
