<svg width="28" height="31" viewBox="0 0 28 31" fill="none" xmlns="http://www.w3.org/2000/svg">
<path d="M14.3172 1H13.6828C12.9182 1 12.1848 1.30553 11.6441 1.84939C11.1034 2.39325 10.7996 3.13087 10.7996 3.9V4.161C10.7991 4.66955 10.6656 5.16903 10.4126 5.60931C10.1595 6.0496 9.79583 6.41522 9.35796 6.6695L8.73806 7.032C8.29975 7.28653 7.80254 7.42053 7.29643 7.42053C6.79031 7.42053 6.29311 7.28653 5.8548 7.032L5.63855 6.916C4.97694 6.53213 4.19093 6.42799 3.45305 6.62645C2.71517 6.8249 2.08574 7.30973 1.70291 7.9745L1.38575 8.5255C1.0041 9.19096 0.900562 9.98154 1.09787 10.7237C1.29518 11.4659 1.7772 12.099 2.43814 12.484L2.65438 12.629C3.09015 12.882 3.4525 13.2454 3.7054 13.6829C3.95831 14.1204 4.09298 14.6169 4.09601 15.123V15.8625C4.09803 16.3735 3.96576 16.876 3.7126 17.319C3.45944 17.7621 3.09438 18.13 2.65438 18.3855L2.43814 18.516C1.7772 18.901 1.29518 19.5341 1.09787 20.2763C0.900562 21.0185 1.0041 21.809 1.38575 22.4745L1.70291 23.0255C2.08574 23.6903 2.71517 24.1751 3.45305 24.3736C4.19093 24.572 4.97694 24.4679 5.63855 24.084L5.8548 23.968C6.29311 23.7135 6.79031 23.5795 7.29643 23.5795C7.80254 23.5795 8.29975 23.7135 8.73806 23.968L9.35796 24.3305C9.79583 24.5848 10.1595 24.9504 10.4126 25.3907C10.6656 25.831 10.7991 26.3304 10.7996 26.839V27.1C10.7996 27.8691 11.1034 28.6068 11.6441 29.1506C12.1848 29.6945 12.9182 30 13.6828 30H14.3172C15.0818 30 15.8152 29.6945 16.3559 29.1506C16.8966 28.6068 17.2004 27.8691 17.2004 27.1V26.839C17.2009 26.3304 17.3344 25.831 17.5874 25.3907C17.8405 24.9504 18.2042 24.5848 18.642 24.3305L19.2619 23.968C19.7003 23.7135 20.1975 23.5795 20.7036 23.5795C21.2097 23.5795 21.7069 23.7135 22.1452 23.968L22.3614 24.084C23.0231 24.4679 23.8091 24.572 24.547 24.3736C25.2848 24.1751 25.9143 23.6903 26.2971 23.0255L26.6142 22.46C26.9959 21.7945 27.0994 21.004 26.9021 20.2618C26.7048 19.5196 26.2228 18.8865 25.5619 18.5015L25.3456 18.3855C24.9056 18.13 24.5406 17.7621 24.2874 17.319C24.0342 16.876 23.902 16.3735 23.904 15.8625V15.1375C23.902 14.6265 24.0342 14.124 24.2874 13.681C24.5406 13.2379 24.9056 12.87 25.3456 12.6145L25.5619 12.484C26.2228 12.099 26.7048 11.4659 26.9021 10.7237C27.0994 9.98154 26.9959 9.19096 26.6142 8.5255L26.2971 7.9745C25.9143 7.30973 25.2848 6.8249 24.547 6.62645C23.8091 6.42799 23.0231 6.53213 22.3614 6.916L22.1452 7.032C21.7069 7.28653 21.2097 7.42053 20.7036 7.42053C20.1975 7.42053 19.7003 7.28653 19.2619 7.032L18.642 6.6695C18.2042 6.41522 17.8405 6.0496 17.5874 5.60931C17.3344 5.16903 17.2009 4.66955 17.2004 4.161V3.9C17.2004 3.13087 16.8966 2.39325 16.3559 1.84939C15.8152 1.30553 15.0818 1 14.3172 1Z" stroke="black" stroke-width="2" stroke-linecap="round" stroke-linejoin="round"/>
<path d="M14 19.85C16.3886 19.85 18.3249 17.9024 18.3249 15.5C18.3249 13.0976 16.3886 11.15 14 11.15C11.6114 11.15 9.67511 13.0976 9.67511 15.5C9.67511 17.9024 11.6114 19.85 14 19.85Z" stroke="black" stroke-width="2" stroke-linecap="round" stroke-linejoin="round"/>
</svg>
