<svg width="28" height="31" viewBox="0 0 28 31" fill="none" xmlns="http://www.w3.org/2000/svg">
<path d="M22.6667 20.3333C20.2734 20.3333 18.3333 22.4973 18.3333 25.1667C18.3333 27.836 20.2734 30 22.6667 30C25.0599 30 27 27.836 27 25.1667C27 22.4973 25.0599 20.3333 22.6667 20.3333ZM22.6667 20.3333V9.05556C22.6667 8.20097 22.3623 7.38138 21.8205 6.7771C21.2788 6.17282 20.544 5.83333 19.7778 5.83333H15.4444M5.33333 10.6667C7.72657 10.6667 9.66667 8.50271 9.66667 5.83333C9.66667 3.16396 7.72657 1 5.33333 1C2.9401 1 1 3.16396 1 5.83333C1 8.50271 2.9401 10.6667 5.33333 10.6667ZM5.33333 10.6667V30" stroke="black" stroke-width="2" stroke-linecap="round" stroke-linejoin="round"/>
</svg>
